<svg xmlns="http://www.w3.org/2000/svg" xmlns:xlink="http://www.w3.org/1999/xlink" viewBox="0 0 98.79 103.7"><defs><style>.cls-1{fill:url(#radial-gradient);}.cls-2,.cls-3,.cls-4,.cls-5{fill-rule:evenodd;}.cls-2{fill:url(#linear-gradient);}.cls-3{fill:url(#linear-gradient-2);}.cls-4{fill:url(#linear-gradient-3);}.cls-5{fill:url(#linear-gradient-4);}.cls-6{fill:#fff;opacity:0.26;}</style><radialGradient id="radial-gradient" cx="49.4" cy="54.31" r="49.4" gradientUnits="userSpaceOnUse"><stop offset="0" stop-color="#ffe5a1"/><stop offset="1" stop-color="#fcb116"/></radialGradient><linearGradient id="linear-gradient" x1="23.39" y1="6.61" x2="75.31" y2="101.79" gradientUnits="userSpaceOnUse"><stop offset="0" stop-color="#828487"/><stop offset="1" stop-color="#231f20"/></linearGradient><linearGradient id="linear-gradient-2" x1="42.67" y1="0.89" x2="50.84" y2="25.89" gradientUnits="userSpaceOnUse"><stop offset="0" stop-color="#230000"/><stop offset="1" stop-color="#b12a30"/></linearGradient><linearGradient id="linear-gradient-3" x1="33.95" y1="8.64" x2="38.45" y2="22.39" xlink:href="#linear-gradient-2"/><linearGradient id="linear-gradient-4" x1="40.33" y1="19.08" x2="42.6" y2="26.02" xlink:href="#linear-gradient-2"/></defs><g id="Layer_2" data-name="Layer 2"><g id="Layer_1-2" data-name="Layer 1"><rect class="cls-1" y="4.91" width="98.79" height="98.79" rx="8.65"/><path class="cls-2" d="M77.48,25.59l1.91,1.79c5.15,5.48,4.39,11.1-1.18,17.05-1.72,1.84-4.18,2.89-5.27,4.91,1.14,1.39,2.67.82,4.39-.14,1.17-.66,3.29-3,4.45-1.88.9.88-1,4.41-1.66,5.83-4.58,10.43-13.73,21.26-24,28.79-1.92,1.41-4.06,2.8-6.57,4.38-1.55,1-5.32,3.92-6.62,2.54-2-2.08,5.09-6.09,1.35-8.15-2.64.82-4.26,4.08-6.51,6.23-4.79,4.58-8.81,3.91-14,.35l-2.63-2.46c-3.53-4.25-3.12-8.09-1.69-12.56-1.11-2-2-3.94-3.2-5.91a32.37,32.37,0,0,1,7.2.92c.26-.86,1.86-1.78,2.8-3,0-3.66-2.41-7.25-1.87-10.93C23,51.64,22,49.9,20.72,48.17l.11-.12c2.11.63,4.19.64,6.29,1.18a4.15,4.15,0,0,1,1.24-1.08A108.89,108.89,0,0,0,39.59,45c.6-3,1.23-6,1.67-9,.37-.52.76-.38,1.13-1a28.5,28.5,0,0,1-1.25-6.32c1.81,1,3.61,1.91,5.42,3.06.53-.22,1.06-.76,1.6-.75a75.85,75.85,0,0,0,10,.6c1-1.46,2.2-2.93,3.45-4.4a32,32,0,0,1-1.82-5.95c2,.94,4.06,1.6,6.1,2.57C69.68,22.93,73.52,22.48,77.48,25.59Zm-7.12,1.62A7.38,7.38,0,0,0,64.2,30a8.7,8.7,0,0,0-1.44,9c2.4,5.24,10.34,7.63,14.73,1.25A8.32,8.32,0,0,0,74.8,28.69,8.08,8.08,0,0,0,70.36,27.21ZM44.18,43.93c-.28,7.41,9.52,11.44,14.55,6,3.6-3.9,2.73-9.5-1.57-12.45C52.27,34.13,44.45,36.91,44.18,43.93Zm11.32,31C61.29,71.85,70.42,62.53,70,56.26c-.18-3-2.47-6.16-4.2-8.19-3.5,5.75-9.42,8.49-14.13,10.3-1.16,4.22-5.23,9.75-9.41,12.69C46.93,74.31,51.11,77.22,55.5,74.9Zm-25.34-21C26.13,60,33.14,69,40.51,66c6.64-2.64,6.82-11.06,1.25-14.74A8.3,8.3,0,0,0,30.16,53.87Zm.15,14.92a7.05,7.05,0,0,0-5.58,2.62,8.49,8.49,0,0,0,.5,11.9c4.1,3.74,11.4,2.23,13.44-3.11,1.3-3.42.49-7.27-3.45-10A8,8,0,0,0,30.31,68.79Z"/><path class="cls-3" d="M52.91,24.69a4.9,4.9,0,1,1-.3-6.81A4.82,4.82,0,0,1,52.91,24.69Z"/><path class="cls-4" d="M39.59,21.74A2.7,2.7,0,1,1,39.42,18,2.66,2.66,0,0,1,39.59,21.74Z"/><path class="cls-5" d="M43.18,25.69a1.36,1.36,0,1,1-.09-1.89A1.34,1.34,0,0,1,43.18,25.69Z"/><path class="cls-6" d="M69,0S62.5,0,60.57,8.17l-5,.24L59.37,7A9.87,9.87,0,0,1,69,0Z"/><path class="cls-6" d="M44.23,12a14,14,0,0,0-1.92,10.81s-5.05-1.68-13,2.65c0,0,8.17-4.33,11.53-4.33C40.86,21.15,41.34,14.18,44.23,12Z"/></g></g></svg>