<svg xmlns="http://www.w3.org/2000/svg" xmlns:xlink="http://www.w3.org/1999/xlink" viewBox="0 0 98.79 98.79"><defs><style>.cls-1{fill:url(#radial-gradient);}.cls-2{fill:#f1f0f0;}.cls-3{fill:none;stroke:#a2a0a0;stroke-linecap:round;stroke-width:0.75px;}.cls-4{fill:url(#linear-gradient);}.cls-5{fill:url(#linear-gradient-2);}.cls-6{fill:#5e5f5f;}</style><radialGradient id="radial-gradient" cx="49.4" cy="49.4" r="49.4" gradientUnits="userSpaceOnUse"><stop offset="0" stop-color="#ffe5a1"/><stop offset="1" stop-color="#fcb116"/></radialGradient><linearGradient id="linear-gradient" x1="40.94" y1="36.18" x2="65.2" y2="77.87" gradientUnits="userSpaceOnUse"><stop offset="0" stop-color="#f26225"/><stop offset="1" stop-color="#7f381a"/></linearGradient><linearGradient id="linear-gradient-2" x1="50.07" y1="49.24" x2="52" y2="53.95" gradientUnits="userSpaceOnUse"><stop offset="0" stop-color="#dfdfde"/><stop offset="1" stop-color="#010101"/></linearGradient></defs><g id="Layer_2" data-name="Layer 2"><g id="Layer_1-2" data-name="Layer 1"><rect class="cls-1" width="98.79" height="98.79" rx="8.65"/><path class="cls-2" d="M79.67,49.78A29.69,29.69,0,1,1,50,20.09,29.68,29.68,0,0,1,79.67,49.78Z"/><line class="cls-3" x1="40.53" y1="39.85" x2="61.59" y2="60.9"/><line class="cls-3" x1="61.59" y1="38.96" x2="40.53" y2="60.02"/><polygon class="cls-4" points="49.41 28.14 44.51 49.77 49.95 74.26 55.8 49.91 49.41 28.14"/><path class="cls-5" d="M51.79,50a1.39,1.39,0,1,1-1.39-1.39A1.39,1.39,0,0,1,51.79,50Z"/><path class="cls-6" d="M36.67,30a.26.26,0,0,1,0,.43c-.27.27-.39.47-.36.58a1.43,1.43,0,0,0,.39.52l4.84,4.86c.09.09.07.22-.08.39a.55.55,0,0,1-.53.22L33,35.64l3.66,3.67a1.6,1.6,0,0,0,.53.4c.12,0,.32-.09.59-.36a.27.27,0,0,1,.43,0,.28.28,0,0,1,0,.45l-1.71,1.7a.31.31,0,1,1-.44-.43c.27-.27.39-.46.38-.57s-.15-.29-.42-.55l-3.88-3.89c-.25-.26-.43-.39-.53-.4s-.28.13-.55.4a.28.28,0,0,1-.43,0,.27.27,0,0,1,0-.43L32,34.29a.33.33,0,0,1,.14-.09.42.42,0,0,1,.2,0l6.94,1.21-3.19-3.2a1.42,1.42,0,0,0-.54-.41c-.1,0-.29.11-.56.37a.27.27,0,0,1-.43,0,.26.26,0,0,1,0-.42l1.7-1.7C36.39,29.88,36.53,29.87,36.67,30Z"/><path class="cls-6" d="M28.75,61.08a.26.26,0,0,1,.42,0,.68.68,0,0,0,.41.3,1.61,1.61,0,0,0,.7-.18L37,58.45c.11-.05.22,0,.34.14s.15.27.08.38l-3.17,4.85,5.24-2.28c.11,0,.23,0,.34.15s.15.28.09.38l-4.15,6.4a1.17,1.17,0,0,0-.2.39c0,.08.06.24.25.47a.27.27,0,0,1-.06.42c-.17.13-.31.12-.43,0l-1.63-2a.27.27,0,0,1,.07-.42.27.27,0,0,1,.42,0c.22.28.36.41.43.4s.16-.12.3-.33l2.73-4.18L33.44,65l-.29.37a.48.48,0,0,0-.15.4,1.52,1.52,0,0,0,.32.5.28.28,0,0,1-.06.43.27.27,0,0,1-.43,0L31,64.39c-.11-.14-.09-.27.07-.4a.26.26,0,0,1,.42,0,2,2,0,0,0,.51.52c.1,0,.22-.06.36-.28l2.75-4.17-4.47,1.87a2.06,2.06,0,0,0-.45.24c-.06.06,0,.25.3.58a.31.31,0,0,1-.49.39L28.68,61.5C28.56,61.35,28.59,61.21,28.75,61.08Z"/><path class="cls-6" d="M65.78,40.94a.29.29,0,0,1-.18.08.24.24,0,0,1-.18-.1L60.9,36.34a.27.27,0,0,1,0-.43.26.26,0,0,1,.42,0c.29.28.48.43.58.43a.78.78,0,0,0,.42-.27l4.2-4.15c.18-.17.27-.31.27-.4s-.14-.29-.43-.58a.26.26,0,0,1,0-.42.25.25,0,0,1,.41,0L71.23,35a.39.39,0,0,1,.11.17.36.36,0,0,1-.09.18l-1.7,1.88a.23.23,0,0,1-.35,0,.27.27,0,0,1-.09-.38A3.42,3.42,0,0,0,69.88,35c0-.37-.52-1-1.45-2a1.35,1.35,0,0,0-.49-.38c-.1,0-.24.08-.42.26L65.7,34.7a2.93,2.93,0,0,0,1.11.83A1.78,1.78,0,0,0,68,35.09a.31.31,0,0,1,.44,0,.25.25,0,0,1,0,.4l-2.3,2.28a.24.24,0,0,1-.39,0,.31.31,0,0,1-.05-.41c.37-.51.51-.89.45-1.14a3.26,3.26,0,0,0-.83-1.1l-1.94,1.91c-.2.2-.3.35-.29.44a1.43,1.43,0,0,0,.39.5q1.5,1.53,2.07,1.56a3.91,3.91,0,0,0,1.9-.75.27.27,0,0,1,.37.08c.11.12.11.24,0,.33Z"/><path class="cls-6" d="M64.52,67.24A2.37,2.37,0,0,1,63,66.53a2.14,2.14,0,0,1-.8-1.81A3.47,3.47,0,0,1,64.12,62a3.52,3.52,0,0,1,1.19-.35L65,61a.4.4,0,0,1,.11-.4c.11-.11.22-.13.32,0l2.2,1.9c.13.1.12.24,0,.4s-.28.21-.41.14a3.1,3.1,0,0,0-2-.47,2.3,2.3,0,0,0-1.49.69,1.8,1.8,0,0,0-.61,1.34,1.42,1.42,0,0,0,.39.89,1.24,1.24,0,0,0,1.07.4,5.15,5.15,0,0,0,1.5-.7l1-.62a3.11,3.11,0,0,1,1.08-.42,1.72,1.72,0,0,1,.92.11,2.38,2.38,0,0,1,.81.49,2.23,2.23,0,0,1,.77,1.62,2.59,2.59,0,0,1-.75,1.82,3.32,3.32,0,0,1-.9.7,2.51,2.51,0,0,1-1.06.26l.19.62a.29.29,0,0,1-.07.38.21.21,0,0,1-.32,0l-2-1.7c-.13-.1-.13-.23,0-.38s.27-.19.4-.13a3.45,3.45,0,0,0,1.86.42,2.16,2.16,0,0,0,1.34-.69,1.63,1.63,0,0,0,.47-1,1,1,0,0,0-.35-.84,1.26,1.26,0,0,0-.86-.39,1.77,1.77,0,0,0-.83.29l-1.69,1A2.65,2.65,0,0,1,64.52,67.24Z"/></g></g></svg>