<svg xmlns="http://www.w3.org/2000/svg" xmlns:xlink="http://www.w3.org/1999/xlink" viewBox="0 0 98.79 98.79"><defs><style>.cls-1{fill:url(#radial-gradient);}.cls-2{fill:url(#linear-gradient);}.cls-3{fill:#fff;opacity:0.43;}</style><radialGradient id="radial-gradient" cx="49.4" cy="49.4" r="49.4" gradientUnits="userSpaceOnUse"><stop offset="0" stop-color="#fffbd3"/><stop offset="1" stop-color="#febc11"/></radialGradient><linearGradient id="linear-gradient" x1="-25.21" y1="175.14" x2="41.42" y2="248.3" gradientTransform="matrix(0.98, 0.2, -0.2, 0.98, 82.13, -164.9)" gradientUnits="userSpaceOnUse"><stop offset="0" stop-color="#828487"/><stop offset="1" stop-color="#231f20"/></linearGradient></defs><g id="Layer_2" data-name="Layer 2"><g id="Layer_1-2" data-name="Layer 1"><rect class="cls-1" width="98.79" height="98.79" rx="8.65"/><path class="cls-2" d="M89.09,44.34a19.61,19.61,0,0,0-36.7,12.35A25.72,25.72,0,0,0,47,54.63a22.38,22.38,0,0,0-5.05-.71,19.6,19.6,0,1,0-14.23,5.63,23,23,0,0,0-4.1,5,50.12,50.12,0,0,0,18.69,9.82,44.65,44.65,0,0,0,20.39.24,17.47,17.47,0,0,0-.23-3.81A19.62,19.62,0,0,0,89.09,44.34Z"/><path class="cls-3" d="M57.23,55.41a18.7,18.7,0,0,1,18.7-18.7,17.6,17.6,0,0,1,2.18.14,15.62,15.62,0,0,0-5.82-1.11,15.87,15.87,0,0,0-15,21C57.26,56.28,57.23,55.85,57.23,55.41Z"/><path class="cls-3" d="M12.16,43.15a18.7,18.7,0,0,1,18.7-18.7,17.6,17.6,0,0,1,2.18.14A15.87,15.87,0,0,0,12.21,44.45C12.18,44,12.16,43.59,12.16,43.15Z"/></g></g></svg>