<svg xmlns="http://www.w3.org/2000/svg" xmlns:xlink="http://www.w3.org/1999/xlink" viewBox="0 0 98.79 98.79"><defs><style>.cls-1{fill:url(#radial-gradient);}.cls-2,.cls-8{fill:#fff;}.cls-2{opacity:0.43;}.cls-3{fill:url(#linear-gradient);}.cls-4{fill:url(#linear-gradient-2);}.cls-5{fill:url(#linear-gradient-3);}.cls-6{fill:url(#linear-gradient-4);}.cls-7{fill:url(#radial-gradient-2);}.cls-8{opacity:0.34;}</style><radialGradient id="radial-gradient" cx="49.4" cy="49.4" r="49.4" gradientUnits="userSpaceOnUse"><stop offset="0" stop-color="#fff"/><stop offset="1" stop-color="#dedfe0"/></radialGradient><linearGradient id="linear-gradient" x1="-1.04" y1="-1.24" x2="97.11" y2="95.84" gradientUnits="userSpaceOnUse"><stop offset="0" stop-color="#828487"/><stop offset="1" stop-color="#231f20"/></linearGradient><linearGradient id="linear-gradient-2" x1="-12.06" y1="9.91" x2="86.08" y2="106.99" xlink:href="#linear-gradient"/><linearGradient id="linear-gradient-3" x1="16.85" y1="-19.31" x2="114.99" y2="77.76" xlink:href="#linear-gradient"/><linearGradient id="linear-gradient-4" x1="-8.09" y1="5.89" x2="90.06" y2="102.97" xlink:href="#linear-gradient"/><radialGradient id="radial-gradient-2" cx="51.59" cy="35.46" r="34.41" gradientTransform="translate(-23.55 23.63) rotate(-24.14)" gradientUnits="userSpaceOnUse"><stop offset="0" stop-color="#fdedf4"/><stop offset="1" stop-color="#f6adcd"/></radialGradient></defs><g id="Layer_2" data-name="Layer 2"><g id="Layer_1-2" data-name="Layer 1"><rect class="cls-1" width="98.79" height="98.79" rx="8.65"/><path class="cls-2" d="M57.7,50.12S70,52.28,70,56.25l-1.45,4.32S70.68,54.81,57.7,50.12Z"/><path class="cls-3" d="M74.15,27,53.3,35.59l-.39.18v0L15.07,51.32c-2.56,1-3.89,3.72-3,6l5.53,10.15c.92,2.24,3.74,3.2,6.3,2.14L42.46,62c2.56-1.05,3.89-3.72,3-6l-3-10.29a7.43,7.43,0,0,1,3.72-3,6.47,6.47,0,0,1,4.56-.41l5.13,9.41c.92,2.24,3.74,3.2,6.3,2.15L80.7,46.22c2.55-1,3.88-3.72,3-5.95L80.45,29.16C79.53,26.92,76.71,26,74.15,27ZM42.44,56.07A3.85,3.85,0,0,1,40,60.92l-15.09,6.2a3.84,3.84,0,0,1-5.13-1.74L15.3,57.11a3.86,3.86,0,0,1,2.42-4.85l17-7A3.84,3.84,0,0,1,39.83,47ZM80.67,40.34a3.85,3.85,0,0,1-2.41,4.85L63.16,51.4A3.85,3.85,0,0,1,58,49.65l-4.5-8.26A3.85,3.85,0,0,1,56,36.54l17-7a3.86,3.86,0,0,1,5.13,1.75Z"/><path class="cls-4" d="M37.87,41.12s-3.31-5.12-6.8-5.19c0,0,1.64,1.44,1.54,1.93a8.79,8.79,0,0,0-6.19,1c-3,1.84-4.16.13-4.16.13l0-.06a6.24,6.24,0,0,0,2.46,2.3s-3.52.24-4.49-1c0,0,.85,2.06,2.22,2.1,0,0-5,.26-5.36-3.51a7.92,7.92,0,0,0,.21,2.32,4.21,4.21,0,0,0,.55,1S13.3,39.93,11.59,42c0,0,2.4-.38,2.66.26a10.85,10.85,0,0,0-3.82,2.45,4.66,4.66,0,0,0-.39.49c-1.32,1.9.1-.5,1.22.4,0,0-1.74,1.62-2.64.18,0,0,1,2.32,2,2.2,0,0-.63-.79-1.21,1.1,0,0,3.82-1,3.88-.09,0,0-1.82,1.8-3.11,1.58,0,0,3.34,1.18,4.21.37Z"/><path class="cls-5" d="M51.51,35.5s-1.25-6,1.18-8.46c0,0-.15,2.17.26,2.45a8.84,8.84,0,0,1,5.13-3.62c3.43-.8,3.05-2.83,3.05-2.83l0-.06A6.2,6.2,0,0,1,61,26.34s2.67-2.3,2.47-3.88c0,0,.85,2.06-.1,3.05,0,0,3.75-3.34,1.34-6.26A8.22,8.22,0,0,1,66.18,21a4.18,4.18,0,0,1,.29,1.08s1.66-4.74,4.33-4.48c0,0-2,1.41-1.71,2.05a10.88,10.88,0,0,1,4.44-1c.2,0,.41,0,.61.08,2.28.41-.41-.28-.58,1.14,0,0,2.38-.07,2-1.73,0,0,1,2.32.16,2.95,0,0-.12-1,1.63-.07,0,0-3.4,2-2.82,2.67,0,0,2.56,0,3.32-1.07,0,0-1.54,3.19-2.73,3.23Z"/><path class="cls-6" d="M46.46,66.91A19.14,19.14,0,0,0,62.4,60.36S70.33,60,73,61.6c0,0-1.09-.45-3.23.88,0,0,4,6.44,6.18,5.76,0,0-2.64,1.76-4.73,1.05,0,0,2.11,2.95,1.14,6A17.87,17.87,0,0,1,70.44,75S68,77.15,68.67,78.88c0,0-3.62,1-4.52-.62,0,0-5,1.59-4.36,3.59,0,0-2.6-2.52-2.2-4.25,0,0-2.36,6.8-5.24,8a3.61,3.61,0,0,0-.34-3s-3.1,1.73-2.71,2.69c0,0-1.34-3.26-.46-3.85a21.32,21.32,0,0,1-3.61,1s1.58-3.79,1.26-4.56c0,0-3.19.41-3.6,2.15s-.28-1.23-.28-1.23.23-4.36,2.6-6.23,1.13-2.71,1.13-2.71-.45,1.08-2.8,1.38C43.54,71.26,46.94,68.06,46.46,66.91Z"/><path class="cls-7" d="M45.52,41.54c-4,2.4-4.74,6.79-.42,16.43,0,0-5.51,15.53,12,7.66s1.28-13,1.28-13S53.44,36.78,45.52,41.54Z"/><path class="cls-8" d="M46.92,45.32s-2.32,8.24,1.45,11.29-2.9,6.1.29,7c0,0-2.32-2.74-.87-4.27S42,57.83,46.92,45.32Z"/></g></g></svg>