<svg xmlns="http://www.w3.org/2000/svg" xmlns:xlink="http://www.w3.org/1999/xlink" viewBox="0 0 98.79 98.79"><defs><style>.cls-1{fill:url(#radial-gradient);}.cls-2,.cls-3,.cls-4,.cls-5{fill-rule:evenodd;}.cls-2{fill:url(#linear-gradient);}.cls-3{fill:url(#linear-gradient-2);}.cls-4{fill:url(#linear-gradient-3);}.cls-5{opacity:0.68;fill:url(#linear-gradient-4);}.cls-6{fill:#080808;}.cls-7{fill:#fff;opacity:0.26;}</style><radialGradient id="radial-gradient" cx="49.4" cy="49.4" r="49.4" gradientUnits="userSpaceOnUse"><stop offset="0" stop-color="#ffeda7"/><stop offset="1" stop-color="#a6d27f"/></radialGradient><linearGradient id="linear-gradient" x1="-97.57" y1="-488.87" x2="-87.77" y2="-488.87" gradientTransform="matrix(0.73, 0.69, -0.69, 0.73, -243.8, 438.18)" gradientUnits="userSpaceOnUse"><stop offset="0" stop-color="#230000"/><stop offset="1" stop-color="#b12a30"/></linearGradient><linearGradient id="linear-gradient-2" x1="-84.56" y1="-483.19" x2="-80.27" y2="-483.19" xlink:href="#linear-gradient"/><linearGradient id="linear-gradient-3" x1="-721.17" y1="-809.58" x2="-702.1" y2="-809.58" gradientTransform="translate(-685.04 819.46) rotate(86.27)" xlink:href="#linear-gradient"/><linearGradient id="linear-gradient-4" x1="-741.04" y1="-799.98" x2="-712.05" y2="-799.98" gradientTransform="translate(-685.04 819.46) rotate(86.27)" xlink:href="#linear-gradient"/></defs><g id="Layer_2" data-name="Layer 2"><g id="Layer_1-2" data-name="Layer 1"><rect class="cls-1" width="98.79" height="98.79" rx="8.65"/><path class="cls-2" d="M28.39,22.7a4.91,4.91,0,1,1-.3-6.81A4.82,4.82,0,0,1,28.39,22.7Z"/><path class="cls-3" d="M29.93,32a2.15,2.15,0,1,1-.13-3A2.12,2.12,0,0,1,29.93,32Z"/><path class="cls-4" d="M77.19,66.14a9.51,9.51,0,1,1,8.56-10.08C86.46,67,81.88,65.84,77.19,66.14Z"/><path class="cls-5" d="M67,56.9A14.26,14.26,0,0,1,52,43.35a14,14,0,1,1,28-1.82A14.25,14.25,0,0,1,67,56.9Z"/><path class="cls-6" d="M40.37,53.09,20.94,79.48,32.3,87.12,49.4,59.17a23.63,23.63,0,0,1-4.87-2.5A23.21,23.21,0,0,1,40.37,53.09Z"/><path class="cls-6" d="M70.91,17.42a23.31,23.31,0,0,0-26,38.69,24,24,0,0,0,4.88,2.5A23.31,23.31,0,0,0,70.91,17.42ZM48.34,51a17.15,17.15,0,1,1,23.79-4.67A17.16,17.16,0,0,1,48.34,51Z"/><path class="cls-7" d="M55.76,15.91S38,16.15,35.57,36.34a45,45,0,0,1,7.69-12.49A28.29,28.29,0,0,1,55.76,15.91Z"/><polygon class="cls-7" points="40.62 56.06 24.75 77.45 42.54 57.26 40.62 56.06"/></g></g></svg>