<svg xmlns="http://www.w3.org/2000/svg" xmlns:xlink="http://www.w3.org/1999/xlink" viewBox="0 0 98.79 98.79"><defs><style>.cls-1{fill:url(#radial-gradient);}.cls-2,.cls-3,.cls-4,.cls-5,.cls-6,.cls-7,.cls-8,.cls-9{fill-rule:evenodd;}.cls-2{fill:url(#linear-gradient);}.cls-3{fill:url(#linear-gradient-2);}.cls-4{fill:url(#linear-gradient-3);}.cls-10,.cls-5{fill:#fff;}.cls-6{fill:url(#linear-gradient-4);}.cls-7{fill:url(#linear-gradient-5);}.cls-8{fill:url(#linear-gradient-6);}.cls-9{fill:url(#linear-gradient-7);}.cls-10{opacity:0.17;}</style><radialGradient id="radial-gradient" cx="49.4" cy="49.4" r="49.4" gradientUnits="userSpaceOnUse"><stop offset="0" stop-color="#fdedf4"/><stop offset="1" stop-color="#f6adcd"/></radialGradient><linearGradient id="linear-gradient" x1="17.88" y1="55.76" x2="83.92" y2="39.8" gradientUnits="userSpaceOnUse"><stop offset="0" stop-color="#828487"/><stop offset="1" stop-color="#231f20"/></linearGradient><linearGradient id="linear-gradient-2" x1="43.35" y1="61" x2="83.92" y2="61" xlink:href="#linear-gradient"/><linearGradient id="linear-gradient-3" x1="17.12" y1="67.4" x2="43.35" y2="67.4" xlink:href="#linear-gradient"/><linearGradient id="linear-gradient-4" x1="61.36" y1="39.63" x2="34.15" y2="4.02" gradientUnits="userSpaceOnUse"><stop offset="0" stop-color="#fff"/><stop offset="1" stop-color="#dcddde"/></linearGradient><linearGradient id="linear-gradient-5" x1="51.84" y1="29.26" x2="61.18" y2="20.59" gradientUnits="userSpaceOnUse"><stop offset="0" stop-color="#fff"/><stop offset="1" stop-color="#dadbdc"/></linearGradient><linearGradient id="linear-gradient-6" x1="75.27" y1="4.83" x2="60.86" y2="29.64" gradientUnits="userSpaceOnUse"><stop offset="0" stop-color="#fff"/><stop offset="1" stop-color="#c4c6c8"/></linearGradient><linearGradient id="linear-gradient-7" x1="36.46" y1="41.44" x2="42.95" y2="31.13" xlink:href="#linear-gradient-6"/></defs><g id="Layer_2" data-name="Layer 2"><g id="Layer_1-2" data-name="Layer 1"><rect class="cls-1" width="98.79" height="98.79" rx="8.65"/><polygon class="cls-2" points="60.13 30.65 17.11 52.61 43.35 64.51 83.92 39.8 60.13 30.65"/><polygon class="cls-3" points="83.62 55.66 83.92 39.8 43.35 64.51 43.35 82.2 83.62 55.66"/><polygon class="cls-4" points="17.42 68.47 43.35 82.2 43.35 64.51 17.11 52.61 17.42 68.47"/><path class="cls-5" d="M63.79,39.19s-20.13,1.52-25,15.56C38.77,54.75,61.35,51.7,63.79,39.19Z"/><path class="cls-6" d="M44,52.91S35.72,31,37.55,15.7c0,0,7.32-.61,11.9,2.13s11.9,3.36,11.9.31S65,9.6,68.06,12.34c0,0-8.85,18.92-9.46,34.17a23.69,23.69,0,0,1-6,4.36C49.28,52.47,44,52.91,44,52.91Z"/><path class="cls-7" d="M44.35,15.94s-.4,22.3,5.2,35.73c0,0-2.14-17.06,3.2-32.37C52.75,19.3,45.55,16.07,44.35,15.94Z"/><path class="cls-8" d="M61.28,19S57,39.88,58.6,46.51c0,0-1.45-4.57,9.46-34.17,0,0-2.11-2.27-4.91.8S61.28,19,61.28,19Z"/><path class="cls-9" d="M43.63,20.2S36.88,18,37.86,15.85c0,0-5,6.3,6.1,37.06C44,52.91,36.61,35.67,43.63,20.2Z"/><polygon class="cls-10" points="20.59 57.31 43.27 67.04 69.52 50.51 43.6 73.19 20.59 57.31"/></g></g></svg>