<svg xmlns="http://www.w3.org/2000/svg" xmlns:xlink="http://www.w3.org/1999/xlink" viewBox="0 0 98.79 98.79"><defs><style>.cls-1{fill:url(#radial-gradient);}.cls-2{fill:#fff;}.cls-2,.cls-3{fill-rule:evenodd;}.cls-3{fill:#f5a8ca;}.cls-4{fill:url(#linear-gradient);}.cls-5{fill:url(#linear-gradient-2);}</style><radialGradient id="radial-gradient" cx="49.4" cy="49.4" r="49.4" gradientUnits="userSpaceOnUse"><stop offset="0" stop-color="#c2e8f8"/><stop offset="1" stop-color="#47c6e6"/></radialGradient><linearGradient id="linear-gradient" x1="45.81" y1="119.68" x2="50.09" y2="69.5" gradientUnits="userSpaceOnUse"><stop offset="0" stop-color="#828487"/><stop offset="1" stop-color="#231f20"/></linearGradient><linearGradient id="linear-gradient-2" x1="-632.89" y1="623.98" x2="-611.03" y2="665.92" gradientTransform="matrix(-0.8, -0.6, 0.6, -0.8, -855.6, 223.19)" gradientUnits="userSpaceOnUse"><stop offset="0" stop-color="#fff"/><stop offset="1" stop-color="#231f20"/></linearGradient></defs><g id="Layer_2" data-name="Layer 2"><g id="Layer_1-2" data-name="Layer 1"><rect class="cls-1" width="98.79" height="98.79" rx="8.65"/><path class="cls-2" d="M39.34,46.37S39.89,11,50.66,6.61c0,0,9.67,1.66-1.66,40.87Z"/><path class="cls-3" d="M41.88,42.28s.35-24.12,7.26-27.14c0,0,6.2,1.14-1.06,27.89Z"/><path class="cls-2" d="M52.07,48.22s9.52-34,21.06-35.57c0,0,8.92,4.06-12,39.1Z"/><path class="cls-3" d="M56.29,43.88s6-21.9,13-23c0,0,5.38,2.48-7.5,25.17Z"/><path class="cls-4" d="M30.27,46.3,22.71,78.05h0l0,.07c-.55,2.31,8,6.32,19.13,9s20.56,2.93,21.11.62a.17.17,0,0,0,0-.07l.18,0,7.57-31.75c7.44-.17,12.57-1.88,13.31-5,1.31-5.54-11.8-13.4-29.3-17.57S22,30.32,20.64,35.85C19.9,39,23.7,42.79,30.27,46.3Z"/><path class="cls-5" d="M28.67,78.06l7.65-33.54A3.3,3.3,0,0,0,33,45.1l-8.4,33Z"/></g></g></svg>