<svg xmlns="http://www.w3.org/2000/svg" xmlns:xlink="http://www.w3.org/1999/xlink" viewBox="0 0 98.79 98.79"><defs><style>.cls-1{fill:none;}.cls-2{fill:url(#radial-gradient);}.cls-3{fill:url(#linear-gradient);}.cls-4{fill:url(#radial-gradient-2);}.cls-5{clip-path:url(#clip-path);}.cls-6,.cls-7{fill:#fff;}.cls-7{opacity:0.43;}</style><radialGradient id="radial-gradient" cx="49.4" cy="49.4" r="49.4" gradientUnits="userSpaceOnUse"><stop offset="0" stop-color="#f79c71"/><stop offset="1" stop-color="#ed1c24"/></radialGradient><linearGradient id="linear-gradient" x1="9.8" y1="519.86" x2="12.15" y2="575.03" gradientTransform="matrix(1, -0.05, 0.05, 1, 10.35, -505.41)" gradientUnits="userSpaceOnUse"><stop offset="0" stop-color="#828487"/><stop offset="1" stop-color="#231f20"/></linearGradient><radialGradient id="radial-gradient-2" cx="50.94" cy="77.05" r="18.35" gradientUnits="userSpaceOnUse"><stop offset="0" stop-color="#e7e514"/><stop offset="1" stop-color="#6ebe44"/></radialGradient><clipPath id="clip-path"><path class="cls-1" d="M68.89,72.71c-8-3.54-22.42-5.61-33.27,1.69-13.27,8.93-16.5-60.09-3-54.16C47,26.58,56,23.49,65.85,18.55,78.43,12.28,80.35,77.77,68.89,72.71Z"/></clipPath></defs><g id="Layer_2" data-name="Layer 2"><g id="Layer_1-2" data-name="Layer 1"><rect class="cls-2" width="98.79" height="98.79" rx="8.65"/><path class="cls-3" d="M26,26.26c3,12.65,2,44.3,2,44.3l45.65-1S70,43.88,71.19,21.09c.08-1.56-4.78-1.58-6.09-1.52s-7.39,3.51-9.48,3.62-13.49,1.73-20.45-1.57-5-.79-5-.79S25.61,24.6,26,26.26Z"/><path class="cls-4" d="M73.43,68.25c2,1.35,1.61,6.07.42,8.14s-3.42,2.37-1.4,5.56-.62,6.07-3.1,4.92-.6-4.55-.6-4.55a2.61,2.61,0,0,0-.16-3.1c-1.2-1.77-3.77-4.75-5-2.49s1.41,2.12,1.32,4-2.63,3.24-3.43,2.19-.84-1.79.16-4.22,1.3-3.73-1.51-4S57.08,76,54.3,76.29s-6.29-3-7.68-1.08S48,77,48.09,78.62s-3,3.44-3.13.7-2-2.09-4.34-1.24-1.91,2.66-4.31,3-3.38-4.22-4.6-2.51,1.54,4.68-1.42,5-.94-4.75-.66-5.64c1.1-3.44-3.76-5.62-2.33-8.36,1.81-3.49,17-1.57,22.31-1.18C67.66,69.69,68.17,64.74,73.43,68.25Z"/><g class="cls-5"><polygon class="cls-6" points="24.12 18.95 29.68 39.23 32.5 18.53 24.12 18.95"/><polygon class="cls-6" points="31.94 18.56 37.5 38.83 40.33 18.13 31.94 18.56"/><polygon class="cls-6" points="39.77 18.16 45.33 38.43 48.16 17.73 39.77 18.16"/><polygon class="cls-6" points="47.6 17.76 53.15 38.04 55.98 17.34 47.6 17.76"/><polygon class="cls-6" points="55.42 17.36 60.98 37.64 63.81 16.94 55.42 17.36"/><polygon class="cls-6" points="63.25 16.97 68.81 37.24 71.64 16.54 63.25 16.97"/><polygon class="cls-6" points="74.56 74.15 69.11 55.83 66.18 74.58 74.56 74.15"/><polygon class="cls-6" points="66.74 74.55 61.28 56.22 58.35 74.98 66.74 74.55"/><polygon class="cls-6" points="58.91 74.95 53.45 56.62 50.53 75.37 58.91 74.95"/><polygon class="cls-6" points="51.09 75.35 45.63 57.02 42.7 75.77 51.09 75.35"/><polygon class="cls-6" points="43.26 75.74 37.8 57.42 34.87 76.17 43.26 75.74"/><polygon class="cls-6" points="35.43 76.14 29.98 57.81 27.05 76.57 35.43 76.14"/></g><path class="cls-7" d="M61.77,72.16s-8.17-3.85-20,.24c0,0-7.41,2.49-7,3.77s3.83,2.48,5.75-.17S51.2,69.51,61.77,72.16Z"/><path class="cls-7" d="M30.52,81.89c0,.73-.27,1.32-.6,1.32s-.6-.59-.6-1.32.27-1.32.6-1.32S30.52,81.16,30.52,81.89Z"/><path class="cls-7" d="M70.55,84.54c0,.73-.27,1.32-.6,1.32s-.6-.59-.6-1.32.26-1.33.6-1.33S70.55,83.81,70.55,84.54Z"/></g></g></svg>