<svg xmlns="http://www.w3.org/2000/svg" xmlns:xlink="http://www.w3.org/1999/xlink" viewBox="0 0 98.79 98.79"><defs><style>.cls-1{fill:url(#radial-gradient);}.cls-2{fill:url(#linear-gradient);}.cls-3{fill:#fff;opacity:0.43;}</style><radialGradient id="radial-gradient" cx="49.4" cy="49.4" r="49.4" gradientUnits="userSpaceOnUse"><stop offset="0" stop-color="#fef7fa"/><stop offset="1" stop-color="#f8bdd7"/></radialGradient><linearGradient id="linear-gradient" x1="94.5" y1="476.26" x2="122" y2="550.01" gradientTransform="translate(-72.04 -470.84) rotate(-1.59)" gradientUnits="userSpaceOnUse"><stop offset="0" stop-color="#a30d11"/><stop offset="1" stop-color="#ed1c24"/></linearGradient></defs><g id="Layer_2" data-name="Layer 2"><g id="Layer_1-2" data-name="Layer 1"><rect class="cls-1" width="98.79" height="98.79" rx="8.65"/><path class="cls-2" d="M70.77,26.36a18.62,18.62,0,0,0-18.65,8.47,18.6,18.6,0,0,0-36.41,1.69C14.11,46.67,38.47,78.29,45.6,79.41S84.65,57.79,86.25,47.64A18.61,18.61,0,0,0,70.77,26.36ZM62.15,69.73c-3.54,1.72-24.28-4.8-26.74-9.83A10.13,10.13,0,0,1,51.14,47.79a10.14,10.14,0,0,1,19.24-4.94C72.84,47.88,65.68,68,62.15,69.73Z"/><path class="cls-3" d="M41.38,25.78s-13.17-5.12-19,4.39,6.58,28,6.58,28S17.75,42.4,28,31.88C36.26,23.34,41.38,25.78,41.38,25.78Z"/></g></g></svg>