<svg xmlns="http://www.w3.org/2000/svg" xmlns:xlink="http://www.w3.org/1999/xlink" viewBox="0 0 98.79 98.79"><defs><style>.cls-1{fill:url(#radial-gradient);}.cls-2{fill:#00722e;fill-rule:evenodd;}.cls-3{fill:#fff;opacity:0.43;}</style><radialGradient id="radial-gradient" cx="49.4" cy="49.4" r="49.4" gradientUnits="userSpaceOnUse"><stop offset="0" stop-color="#e7e514"/><stop offset="1" stop-color="#6ebe44"/></radialGradient></defs><g id="Layer_2" data-name="Layer 2"><g id="Layer_1-2" data-name="Layer 1"><rect class="cls-1" width="98.79" height="98.79" rx="8.65"/><path class="cls-2" d="M48.79,14C33.27,14.35,21,28.33,21.29,45.27S42,84.92,50.19,84.75c9-.17,27.66-23.65,27.32-40.59S64.32,13.74,48.79,14ZM44.22,59.76c-1.24,4.07-9.3,1-13.3-2.66s-6.24-9.86-5-13.92,5.47-4.42,9.47-.8S45.45,55.7,44.22,59.76Zm11-.21c-1.39-4,4.28-13.94,8.13-17.72s8.11-3.59,9.5.42-.6,10.33-4.45,14.11S56.56,63.56,55.17,59.55Z"/><path class="cls-3" d="M24.93,38.69c7.55-14.8,23.17-21.95,34.88-16a19.6,19.6,0,0,1,2.38,1.45,16.51,16.51,0,0,0-5.79-5c-9.93-5.07-23.18,1-29.59,13.55A31.86,31.86,0,0,0,24,40.59C24.31,40,24.61,39.32,24.93,38.69Z"/><path class="cls-3" d="M32.56,66.75s14.06,17.3,17.66,15.5S41.21,79,32.56,66.75Z"/></g></g></svg>