<svg xmlns="http://www.w3.org/2000/svg" xmlns:xlink="http://www.w3.org/1999/xlink" viewBox="0 0 98.79 98.79"><defs><style>.cls-1{fill:url(#radial-gradient);}.cls-2{fill:url(#radial-gradient-2);}.cls-3{fill:url(#radial-gradient-3);}.cls-4{fill:url(#radial-gradient-4);}.cls-5{fill:url(#radial-gradient-5);}.cls-6{fill:#fff;opacity:0.3;}.cls-7{fill:#231f20;fill-rule:evenodd;}</style><radialGradient id="radial-gradient" cx="52.64" cy="48.31" r="66.2" gradientUnits="userSpaceOnUse"><stop offset="0" stop-color="#5f5b5f"/><stop offset="1" stop-color="#231f20"/></radialGradient><radialGradient id="radial-gradient-2" cx="85.65" cy="-400.91" r="30.46" gradientTransform="matrix(0.73, 0.69, -0.69, 0.73, -276.8, 252.83)" gradientUnits="userSpaceOnUse"><stop offset="0" stop-color="#f7b5d2"/><stop offset="1" stop-color="#ed1c24"/></radialGradient><radialGradient id="radial-gradient-3" cx="28.04" cy="815.54" r="29.66" gradientTransform="translate(-302.63 -717.22) rotate(-22.09)" xlink:href="#radial-gradient-2"/><radialGradient id="radial-gradient-4" cx="43.81" cy="24.05" r="24.18" gradientTransform="matrix(1, 0, 0, 1, 0, 0)" xlink:href="#radial-gradient-2"/><radialGradient id="radial-gradient-5" cx="-637.35" cy="-3131.97" r="21.21" gradientTransform="matrix(-0.01, 1, -0.33, 0, -999.45, 672.78)" gradientUnits="userSpaceOnUse"><stop offset="0" stop-color="#231f20"/><stop offset="1" stop-color="#231f20"/></radialGradient></defs><g id="Layer_2" data-name="Layer 2"><g id="Layer_1-2" data-name="Layer 1"><rect class="cls-1" width="98.79" height="98.79" rx="8.65"/><path class="cls-2" d="M69.25,66.09a25.66,25.66,0,1,1-1-36.27A25.65,25.65,0,0,1,69.25,66.09Z"/><path class="cls-3" d="M73.9,39A25,25,0,1,1,41.35,25.22,25,25,0,0,1,73.9,39Z"/><path class="cls-4" d="M45.9,28.54s-4.09,5.29-4.09,7.93,1,3.36-3.85,3.84,3.13,0,3.13,2.41,2.64,7.45-2.16,8.17,1.68-1.44,2.88,1.93,1.44,6.73,1.92,9.37.48,3.36-.24,4.09,1.45-.25,3.13,2.16,2.64,3.85,4.32,2.88S53.83,68,55.75,68s-.48-1.2,1-4.33-.48-6.73,5-7.21-2.4,1.2-2.4-5.05S61,45.12,61,45.12s-1.92,1.21-1.92-1.68-1.44-7.21-.48-8.17-1.21.24-1.45-2.16-1-6-2.88-6.73-2.64.71-4.33-.49-1.92,2.65-2.88,1.69S45.9,28.54,45.9,28.54Z"/><path class="cls-5" d="M50.13,70.18s-6.94-9.59-6.79-21.3,7.33-21.13,7.33-21.13,6.94,9.59,6.79,21.31S50.13,70.18,50.13,70.18Z"/><path class="cls-6" d="M57.72,45.54a11.76,11.76,0,1,1-.46-16.63A11.76,11.76,0,0,1,57.72,45.54Z"/><path class="cls-7" d="M10.61,6.58s11.58,2.63,17.7,5.3a10.43,10.43,0,0,1,3.3,2c2.87,3.16,5.72,5.85,5.72,5.85s5.78.08,7,.73-7.38.67-7.38.67a13.65,13.65,0,0,0-5.23-5.4C27.91,13.49,10.61,6.58,10.61,6.58Z"/><path class="cls-7" d="M55.13,77.93s11.59,2.63,17.7,5.3a10.43,10.43,0,0,1,3.31,2c2.86,3.15,5.71,5.85,5.71,5.85s5.78.07,7,.73-7.37.66-7.37.66a13.73,13.73,0,0,0-5.24-5.4C72.43,84.85,55.13,77.93,55.13,77.93Z"/><path class="cls-7" d="M73.46,70.2a81.45,81.45,0,0,1,4.69,9.66,6.57,6.57,0,0,1,.48,2.21c-.15,2.5-.12,4.81-.12,4.81s2.19,2.47,2.37,3.24-3.09-2.85-3.09-2.85a8.56,8.56,0,0,0,.13-4.43C77.35,80.35,73.46,70.2,73.46,70.2Z"/><path class="cls-7" d="M17.19,8.88A40.66,40.66,0,0,1,21.3,14.2a2.5,2.5,0,0,1,.42,1.22c-.14,1.38-.13,2.66-.13,2.66a11.89,11.89,0,0,1,2.09,1.78c.16.42-2.72-1.56-2.72-1.56a3.11,3.11,0,0,0,.13-2.45C20.59,14.48,17.19,8.88,17.19,8.88Z"/></g></g></svg>