<svg xmlns="http://www.w3.org/2000/svg" xmlns:xlink="http://www.w3.org/1999/xlink" viewBox="0 0 98.79 98.79"><defs><style>.cls-1{fill:url(#radial-gradient);}.cls-2{fill-rule:evenodd;fill:url(#radial-gradient-2);}.cls-3{fill:#fff;opacity:0.26;}</style><radialGradient id="radial-gradient" cx="49.4" cy="49.4" r="49.4" gradientUnits="userSpaceOnUse"><stop offset="0" stop-color="#fef3f7"/><stop offset="1" stop-color="#d9d8ab"/></radialGradient><radialGradient id="radial-gradient-2" cx="-341.04" cy="-260.08" r="29.93" gradientTransform="matrix(1.07, 1.01, -0.96, 1.01, 153.14, 648.93)" gradientUnits="userSpaceOnUse"><stop offset="0" stop-color="#fbad18"/><stop offset="1" stop-color="#b95c15"/></radialGradient></defs><g id="Layer_2" data-name="Layer 2"><g id="Layer_1-2" data-name="Layer 1"><rect class="cls-1" width="98.79" height="98.79" rx="8.65"/><path class="cls-2" d="M63.31,77.82a3.78,3.78,0,0,0-2.6-2.52L63.11,60l15.6-3.36A3.76,3.76,0,0,0,81.4,59.5a3.32,3.32,0,0,0,4.18-2.44,3.74,3.74,0,0,0-2.7-4.32,3.35,3.35,0,0,0-3.71,1.35L66.65,43.36l4.2-15.63a3.45,3.45,0,0,0,4.08-.63,3.62,3.62,0,0,0-5.25-5,3.43,3.43,0,0,0-.49,3.93L53.74,31.15,42.54,19.47a3.34,3.34,0,0,0,1.31-3.72,3.74,3.74,0,0,0-4.36-2.64,3.3,3.3,0,0,0-2.4,4.2,3.83,3.83,0,0,0,2.68,2.61L37.29,35.61,21.83,38.94a3.79,3.79,0,0,0-2.68-3.21,3.32,3.32,0,0,0-4.24,2.35,3.72,3.72,0,0,0,2.6,4.37,3.37,3.37,0,0,0,3.57-1L33.75,52.29,29.66,67.51a3.41,3.41,0,0,0-3.68.72,3.61,3.61,0,0,0,5.14,5.06,3.38,3.38,0,0,0,.59-3.87L46.66,64.5l11,11.42a3.38,3.38,0,0,0-1,3.61A3.73,3.73,0,0,0,61,82.07,3.3,3.3,0,0,0,63.31,77.82Z"/><polygon class="cls-3" points="41.34 22.86 40.37 37.97 26.47 41.15 43.05 41.63 41.34 22.86"/><polygon class="cls-3" points="33.97 64.57 40.46 49.52 27.27 41.39 36.54 51.52 33.97 64.57"/></g></g></svg>