<svg height="512pt" viewBox="-45 0 511 512" width="512pt" xmlns="http://www.w3.org/2000/svg"><path d="m162.535156 60c5.523438 0 10-4.476562 10-10s-4.476562-10-10-10h-.003906c-5.523438 0-9.996094 4.476562-9.996094 10s4.476563 10 10 10zm0 0"/><path d="m394.5 40h-34.003906v-14c0-14.335938-11.664063-26-26-26-14.335938 0-26 11.664062-26 26v14h-105.996094c-5.523438 0-10 4.476562-10 10s4.476562 10 10 10h105.996094v14c0 14.335938 11.664062 26 26 26 14.335937 0 26-11.664062 26-26v-14h34.003906c3.25 0 6 2.746094 6 6v54h-380v-54c0-3.253906 2.746094-6 6-6h34v14c0 14.335938 11.664062 26 26 26s26-11.664062 26-26v-14h21.035156c5.523438 0 10-4.476562 10-10s-4.476562-10-10-10h-21.035156v-14c0-14.335938-11.664062-26-26-26s-26 11.664062-26 26v14h-34c-14.335938 0-26 11.664062-26 26v420c0 14.335938 11.664062 26 26 26h368c14.335938 0 26-11.664062 26-26v-420c0-14.335938-11.664062-26-26-26zm-54.003906 34c0 3.25-2.746094 6-6 6-3.25 0-6-2.75-6-6v-48c0-3.253906 2.75-6 6-6 3.253906 0 6 2.746094 6 6zm-259.996094-48c0-3.253906 2.75-6 6-6 3.253906 0 6 2.746094 6 6v48c0 3.25-2.746094 6-6 6-3.25 0-6-2.75-6-6zm320 460c0 3.253906-2.75 6-6 6h-368c-3.253906 0-6-2.746094-6-6v-346h380zm0 0"/><path d="m339.460938 481.996094h41.035156c5.523437 0 10-4.476563 10-10 0-5.523438-4.476563-10-10-10h-41.035156c-5.519532 0-10 4.476562-10 10 0 5.523437 4.480468 10 10 10zm0 0"/><path d="m310.734375 462h-.238281c-5.523438 0-10 4.476562-10 10s4.476562 10 10 10h.238281c5.519531 0 10-4.476562 10-10s-4.480469-10-10-10zm0 0"/><path d="m40.5 170h92.003906c5.523438 0 10-4.476562 10-10s-4.476562-10-10-10h-92.003906c-5.523438 0-10 4.476562-10 10s4.476562 10 10 10zm0 0"/><path d="m40.5 200.003906h62c5.523438 0 10-4.480468 10-10 0-5.523437-4.476562-10-10-10h-62c-5.523438 0-10 4.476563-10 10 0 5.519532 4.476562 10 10 10zm0 0"/><path d="m100.5 277.097656c0 18.710938 9.222656 35.304688 23.363281 45.480469-3.246093 4.164063-5.183593 9.394531-5.183593 15.066406v68.71875c0 13.53125 11.011718 24.542969 24.546874 24.542969h112.660157c12.167969 0 22.296875-8.902344 24.21875-20.539062l27.132812 9.359374c3.054688 1.054688 6.433594.566407 9.066407-1.308593 2.628906-1.878907 4.191406-4.910157 4.191406-8.144531v-76.542969c0-3.234375-1.5625-6.269531-4.191406-8.144531-2.632813-1.875-6.011719-2.363282-9.066407-1.308594l-27.132812 9.359375c-.5625-3.40625-1.828125-6.578125-3.644531-9.363281 15.535156-9.964844 25.855468-27.390626 25.855468-47.175782 0-30.878906-25.125-56.003906-56.003906-56.003906-18 0-34.542969 8.804688-44.902344 22.632812-10.363281-13.828124-26.90625-22.632812-44.910156-22.632812-30.878906 0-56 25.125-56 56.003906zm56-36.003906c16.746094 0 31.523438 11.84375 35.144531 28.15625 1.019531 4.578125 5.074219 7.835938 9.765625 7.835938 4.6875 0 8.746094-3.257813 9.761719-7.835938 3.621094-16.3125 18.398437-28.15625 35.140625-28.15625 19.851562 0 36.003906 16.152344 36.003906 36.003906 0 19.789063-16.050781 35.898438-35.8125 36h-.191406c-5.519531 0-10 4.476563-10 10 0 5.523438 4.480469 10 10 10h9.574219c2.464843 0 4.542969 2.082032 4.542969 4.546875v9.90625c0 3.234375 1.5625 6.265625 4.195312 8.144531 2.632812 1.875 6.011719 2.363282 9.066406 1.308594l26.804688-9.246094v48.488282l-26.804688-9.246094c-3.054687-1.054688-6.433594-.566406-9.066406 1.308594s-4.195312 4.910156-4.195312 8.144531v9.90625c0 2.464844-2.082032 4.546875-4.542969 4.546875h-112.660157c-2.464843 0-4.542968-2.082031-4.542968-4.546875v-68.714844c0-2.464843 2.082031-4.546875 4.542968-4.546875h13.039063.234375c5.523438 0 10-4.476562 10-10 0-5.523437-4.476562-10-10-10-19.851562 0-36-16.148437-36-36 0-19.851562 16.152344-36.003906 36-36.003906zm0 0"/></svg>