<svg id="_x31_" height="512" viewBox="0 0 24 24" width="512" xmlns="http://www.w3.org/2000/svg"><path d="m21.5 22h-19c-1.378 0-2.5-1.122-2.5-2.5v-2c0-.276.224-.5.5-.5h.5c1.103 0 2-.897 2-2s-.897-2-2-2h-.5c-.276 0-.5-.224-.5-.5v-2c0-1.378 1.122-2.5 2.5-2.5h19c1.378 0 2.5 1.122 2.5 2.5v2c0 .276-.224.5-.5.5h-.5c-1.103 0-2 .897-2 2 0 .534.208 1.036.586 1.414.377.378.879.586 1.413.586h.5c.276 0 .5.224.5.5v2c.001 1.378-1.121 2.5-2.499 2.5zm-20.5-4v1.5c0 .827.673 1.5 1.5 1.5h19c.827 0 1.5-.673 1.5-1.5v-1.5h-.001c-.801 0-1.554-.312-2.12-.878-.567-.567-.879-1.321-.879-2.122 0-1.654 1.346-3 3-3v-1.5c0-.827-.673-1.5-1.5-1.5h-19c-.827 0-1.5.673-1.5 1.5v1.5c1.654 0 3 1.346 3 3s-1.346 3-3 3z"/><path d="m8.5 10c-.276 0-.5-.224-.5-.5v-1c0-.276.224-.5.5-.5s.5.224.5.5v1c0 .276-.224.5-.5.5z"/><path d="m8.5 18.461c-.276 0-.5-.224-.5-.5v-1.691c0-.276.224-.5.5-.5s.5.223.5.5v1.692c0 .276-.224.499-.5.499zm0-4.23c-.276 0-.5-.224-.5-.5v-1.692c0-.276.224-.5.5-.5s.5.224.5.5v1.692c0 .276-.224.5-.5.5z"/><path d="m8.5 22c-.276 0-.5-.224-.5-.5v-1c0-.276.224-.5.5-.5s.5.224.5.5v1c0 .276-.224.5-.5.5z"/><path d="m2.5 9c-.203 0-.394-.124-.468-.325-.097-.259.034-.547.293-.643l15.9-5.937c.773-.29 1.681.144 1.945.923l1.803 5.321c.088.262-.052.545-.313.634-.259.089-.545-.052-.634-.313l-1.803-5.321c-.088-.26-.39-.402-.649-.308l-15.9 5.937c-.057.022-.116.032-.174.032z"/></svg>